<svg xmlns="http://www.w3.org/2000/svg" width="800" height="600" viewBox="0 0 800 600">
  <defs>
    <linearGradient id="g" x1="0" y1="0" x2="1" y2="1">
      <stop offset="0" stop-color="#0ea5e9"/>
      <stop offset="1" stop-color="#0284c7"/>
    </linearGradient>
    <linearGradient id="shine" x1="0" y1="0" x2="1" y2="0">
      <stop offset="0" stop-color="rgba(255,255,255,0)"/>
      <stop offset="0.5" stop-color="rgba(255,255,255,0.22)"/>
      <stop offset="1" stop-color="rgba(255,255,255,0)"/>
    </linearGradient>
    <mask id="m">
      <rect width="800" height="600" fill="#fff"/>
      <path d="M-200 0 L200 0 L1000 600 L600 600 Z" fill="url(#shine)"/>
    </mask>
  </defs>
  <rect width="800" height="600" rx="34" fill="url(#g)"/>
  <rect width="800" height="600" rx="34" fill="#fff" opacity="0.08" mask="url(#m)"/>
  <g opacity="0.92">
    <path d="M250 300c0-44 36-80 80-80h140c44 0 80 36 80 80v70c0 44-36 80-80 80H330c-44 0-80-36-80-80v-70z" fill="rgba(255,255,255,0.18)"/>
    <path d="M315 330l55-60 70 80 45-45 70 75H315z" fill="rgba(255,255,255,0.36)"/>
    <circle cx="515" cy="280" r="18" fill="rgba(255,255,255,0.42)"/>
  </g>
  <text x="400" y="445" text-anchor="middle" font-family="Arial, Helvetica, sans-serif" font-size="42" font-weight="800" fill="#ffffff">SD-COMAYAGUA</text>
  <text x="400" y="488" text-anchor="middle" font-family="Arial, Helvetica, sans-serif" font-size="20" font-weight="600" fill="rgba(255,255,255,0.9)">Imagen no disponible</text>
</svg>
